<?xml version="1.0" standalone="no"?>
<!DOCTYPE svg PUBLIC "-//W3C//DTD SVG 20010904//EN"
 "http://www.w3.org/TR/2001/REC-SVG-20010904/DTD/svg10.dtd">
<svg version="1.0" xmlns="http://www.w3.org/2000/svg"
 width="351.000000pt" height="112.000000pt" viewBox="0 0 351.000000 112.000000"
 preserveAspectRatio="xMidYMid meet">

<g transform="translate(0.000000,112.000000) scale(0.100000,-0.100000)"
fill="#000000" stroke="none">
<path d="M296 837 c-15 -11 -16 -41 -14 -292 l3 -280 30 0 30 0 3 282 c2 267
1 283 -16 292 -14 7 -24 7 -36 -2z"/>
<path d="M2420 825 c-10 -13 5 -43 94 -180 l106 -165 5 -103 c7 -108 14 -129
43 -111 14 9 18 29 20 108 l3 97 105 162 c106 163 120 199 78 205 -16 2 -38
-25 -115 -147 -51 -83 -96 -151 -99 -151 -3 0 -47 68 -99 150 -94 151 -113
169 -141 135z"/>
<path d="M1462 788 c-9 -9 -12 -69 -12 -207 0 -174 2 -199 20 -236 32 -65 128
-108 159 -71 18 22 2 45 -40 56 -59 16 -69 38 -69 157 l0 103 38 0 c46 0 65
12 60 36 -2 15 -14 20 -51 22 l-47 3 0 63 c0 59 -11 86 -35 86 -6 0 -16 -5
-23 -12z"/>
<path d="M654 671 c-72 -18 -124 -67 -143 -137 -13 -46 -14 -243 -2 -262 4 -8
19 -12 32 -10 24 3 24 5 29 133 6 147 16 176 75 201 44 18 59 18 101 -2 55
-26 67 -61 74 -204 l5 -125 25 0 25 0 3 130 c3 153 1 164 -40 210 -50 57 -118
81 -184 66z"/>
<path d="M1094 660 c-47 -15 -79 -55 -79 -100 0 -52 33 -86 104 -106 114 -33
125 -39 136 -68 8 -24 6 -31 -14 -47 -36 -29 -118 -26 -165 6 -43 29 -49 30
-70 9 -12 -12 -14 -20 -5 -36 31 -57 204 -80 270 -35 46 31 64 70 53 116 -11
45 -53 73 -141 95 -99 25 -131 65 -81 100 33 23 89 19 143 -10 44 -23 50 -24
64 -9 50 50 -115 116 -215 85z"/>
<path d="M1845 651 c-47 -22 -99 -74 -114 -114 -25 -66 -6 -164 42 -215 58
-62 166 -81 242 -42 l40 20 16 -21 c9 -12 24 -20 35 -17 17 3 19 14 22 118 3
138 -10 183 -71 235 -66 56 -140 69 -212 36z m176 -90 c36 -35 39 -43 39 -92
0 -67 -24 -109 -75 -133 -120 -57 -247 68 -190 187 24 51 68 77 134 77 49 0
57 -3 92 -39z"/>
<path d="M3004 641 c-48 -22 -76 -55 -100 -117 -33 -87 17 -203 105 -240 42
-18 143 -11 176 12 29 21 63 17 76 -9 l12 -22 13 30 c16 38 17 125 3 198 -13
65 -63 131 -116 153 -45 19 -120 17 -169 -5z m174 -60 c77 -56 83 -158 14
-223 -54 -50 -99 -58 -160 -26 -58 30 -85 74 -84 136 0 51 21 85 72 120 48 32
106 30 158 -7z"/>
</g>
</svg>
