<svg width="1024" height="284.028" viewBox="0 0 270.933 75.149" xmlns="http://www.w3.org/2000/svg"><g style="fill:#fff;fill-opacity:1"><path style="font-style:italic;font-weight:700;font-stretch:semi-condensed;font-size:5.64444px;line-height:1.25;font-family:'DejaVu Serif';-inkscape-font-specification:'DejaVu Serif Bold Italic Semi-Condensed';letter-spacing:0;word-spacing:0;fill:#fff;fill-opacity:1;stroke-width:.264583" d="m352.13 161.718.272-.48-.133-.312-1.128.683 1.04 2.422-.272.481.133.312 1.125-.683zM352.566 165.135q.089.209.285.318.196.112.392.066.19-.045.262-.22.055-.13.02-.277-.012-.05-.036-.105-.085-.203-.282-.315-.195-.11-.386-.065-.196.046-.268.22-.057.129-.022.276.012.051.035.102z" transform="matrix(16.3122 0 0 16.3122 -5496.056 -2625.054)"/><path d="M349.013 160.996h-.926l-.26 1.157-.028.21h-.01l-.148-.317-.541-1.05h-.943l1.343 2.218.322 2.038h.841l-.322-2.038zM350.182 160.996h-.886l-.35 4.256h.897l.045-.717h.853l.265.717h.835zm-.277 2.873.034-1.134-.006-.644h.012l.191.644.362 1.134zM337.38 162.373h.797l-.452 2.85h-.796zM339.295 162.373l-.068.44h.011q.119-.214.316-.355.198-.141.424-.141.113 0 .192.034.084.034.13.085.05.05.073.14.028.085.034.159.011.067 0 .186-.012.118-.023.186-.006.062-.028.186-.011.063-.011.09l-.294 1.84h-.796l.249-1.563.016-.107q.023-.101.023-.152.006-.051 0-.13 0-.08-.04-.113-.039-.04-.112-.04-.215 0-.266.328l-.282 1.778h-.796l.452-2.85zM342.502 162.56l-.418.581q-.085-.09-.164-.135-.079-.051-.186-.051t-.175.056q-.062.057-.074.153-.01.073.046.14.062.063.152.108.096.045.203.118.108.068.192.158.085.085.124.238.046.152.012.355-.068.44-.356.723-.288.276-.717.276-.463 0-.801-.327l.434-.565q.192.187.367.187.096 0 .175-.062.08-.068.096-.175.017-.085-.04-.153-.056-.073-.152-.118-.09-.051-.197-.125-.108-.079-.198-.163-.085-.09-.13-.249-.04-.163-.006-.378.062-.39.373-.61.316-.225.717-.225.429 0 .722.243zM343.118 161.583h.796l-.124.79h.327l-.102.655h-.327l-.35 2.196h-.796l.35-2.196h-.277l.102-.655h.277zM345.156 165.224l.051-.322h-.011q-.248.378-.587.378-.18 0-.31-.113-.125-.113-.181-.276-.05-.164-.074-.373-.016-.214-.006-.39.012-.174.034-.332.029-.175.068-.345.045-.169.124-.383.085-.215.187-.373.107-.158.265-.265.164-.113.35-.113.192 0 .31.113.124.107.164.293h.011l.057-.35h.796l-.452 2.85zm-.112-.672q.084 0 .158-.09.079-.096.124-.237.05-.147.073-.249.028-.107.04-.192.017-.09.022-.186.012-.101.006-.248 0-.147-.05-.237-.051-.09-.142-.09-.095 0-.175.09-.073.09-.124.237-.045.141-.067.243-.023.096-.04.191-.118.768.175.768z" style="font-style:oblique;font-weight:700;font-stretch:condensed;font-size:5.64444px;line-height:1.25;font-family:'Futura LT';-inkscape-font-specification:'Futura LT Bold Oblique Condensed';letter-spacing:0;word-spacing:0;fill:#fff;fill-opacity:1;stroke-width:.264583" transform="matrix(16.3122 0 0 16.3122 -5496.056 -2625.054)"/><path style="font-style:italic;font-weight:700;font-stretch:semi-condensed;font-size:5.64444px;line-height:1.25;font-family:'DejaVu Serif';-inkscape-font-specification:'DejaVu Serif Bold Italic Semi-Condensed';letter-spacing:0;word-spacing:0;fill:#fff;fill-opacity:1;stroke-width:.264583" d="M346.424 165.135q.089.209.285.318.196.112.392.066.19-.045.262-.22.055-.13.02-.277-.012-.05-.036-.105-.085-.203-.282-.315-.195-.11-.386-.065-.196.046-.268.22-.057.129-.022.276.012.051.035.102zM337.452 161.416q.09-.208.285-.318.196-.112.392-.066.19.045.263.22.054.13.02.277-.013.051-.037.105-.085.204-.281.316-.196.11-.386.064-.196-.046-.269-.219-.057-.13-.022-.277.012-.05.035-.102z" transform="matrix(16.3122 0 0 16.3122 -5496.056 -2625.054)"/></g></svg>